HIERARCHY
ROOT Hips
{
	OFFSET 0.000000 0.000000 0.000000
	CHANNELS 6 Xposition Yposition Zposition Zrotation Yrotation Xrotation 
	JOINT LHipJoint
	{
		OFFSET 0.000000 0.000000 0.000000
		CHANNELS 3 Zrotation Yrotation Xrotation
		JOINT LeftUpLeg
		{
			OFFSET 1.363060 -1.794630 0.839290
			CHANNELS 3 Zrotation Yrotation Xrotation
			JOINT LeftLeg
			{
				OFFSET 2.448110 -6.726130 0.000000
				CHANNELS 3 Zrotation Yrotation Xrotation
				JOINT LeftFoot
				{
					OFFSET 2.562200 -7.039590 0.000000
					CHANNELS 3 Zrotation Yrotation Xrotation
					JOINT LeftToeBase
					{
						OFFSET 0.157640 -0.433110 2.322550
						CHANNELS 3 Zrotation Yrotation Xrotation
						End Site
						{
							OFFSET 0.000000 0.000000 0.000000
						}
					}
				}
			}
		}
	}
	JOINT RHipJoint
	{
		OFFSET 0.000000 0.000000 0.000000
		CHANNELS 3 Zrotation Yrotation Xrotation
		JOINT RightUpLeg
		{
			OFFSET -1.305520 -1.794630 0.839290
			CHANNELS 3 Zrotation Yrotation Xrotation
			JOINT RightLeg
			{
				OFFSET -2.542530 -6.985550 0.000000
				CHANNELS 3 Zrotation Yrotation Xrotation
				JOINT RightFoot
				{
					OFFSET -2.568260 -7.056230 0.000000
					CHANNELS 3 Zrotation Yrotation Xrotation
					JOINT RightToeBase
					{
						OFFSET -0.164730 -0.452590 2.363150
						CHANNELS 3 Zrotation Yrotation Xrotation
						End Site
						{
							OFFSET 0.000000 0.000000 0.000000
						}
					}
				}
			}
		}
	}
	JOINT LowerBack
	{
		OFFSET 0.000000 0.000000 0.000000
		CHANNELS 3 Zrotation Yrotation Xrotation
		JOINT Spine
		{
			OFFSET 0.028270 2.035590 -0.193380
			CHANNELS 3 Zrotation Yrotation Xrotation
			JOINT Spine1
			{
				OFFSET 0.056720 2.048850 -0.042750
				CHANNELS 3 Zrotation Yrotation Xrotation
				JOINT Neck
				{
					OFFSET 0.000000 0.000000 0.000000
					CHANNELS 3 Zrotation Yrotation Xrotation
					JOINT Neck1
					{
						OFFSET -0.054170 1.746240 0.172020
						CHANNELS 3 Zrotation Yrotation Xrotation
						JOINT Head
						{
							OFFSET 0.104070 1.761360 -0.123970
							CHANNELS 3 Zrotation Yrotation Xrotation
							End Site
							{
								OFFSET 0.000000 0.000000 0.000000
							}
						}
					}
				}
				JOINT LeftShoulder
				{
					OFFSET 0.000000 0.000000 0.000000
					CHANNELS 3 Zrotation Yrotation Xrotation
					JOINT LeftArm
					{
						OFFSET 3.362410 1.200890 -0.311210
						CHANNELS 3 Zrotation Yrotation Xrotation
						JOINT LeftForeArm
						{
							OFFSET 4.983000 -0.000000 -0.000000
							CHANNELS 3 Zrotation Yrotation Xrotation
							JOINT LeftHand
							{
								OFFSET 3.483560 -0.000000 -0.000000
								CHANNELS 3 Zrotation Yrotation Xrotation
								JOINT LeftFingerBase
								{
									OFFSET 0.000000 0.000000 0.000000
									CHANNELS 3 Zrotation Yrotation Xrotation
									JOINT LeftHandIndex1
									{
										OFFSET 0.715260 -0.000000 -0.000000
										CHANNELS 3 Zrotation Yrotation Xrotation
										End Site
										{
											OFFSET 0.000000 0.000000 0.000000
										}
									}
								}
								JOINT LThumb
								{
									OFFSET 0.000000 0.000000 0.000000
									CHANNELS 3 Zrotation Yrotation Xrotation
									End Site
									{
										OFFSET 0.000000 0.000000 0.000000
									}
								}
							}
						}
					}
				}
				JOINT RightShoulder
				{
					OFFSET 0.000000 0.000000 0.000000
					CHANNELS 3 Zrotation Yrotation Xrotation
					JOINT RightArm
					{
						OFFSET -3.136600 1.374050 -0.404650
						CHANNELS 3 Zrotation Yrotation Xrotation
						JOINT RightForeArm
						{
							OFFSET -5.241900 -0.000000 -0.000000
							CHANNELS 3 Zrotation Yrotation Xrotation
							JOINT RightHand
							{
								OFFSET -3.444170 -0.000000 -0.000000
								CHANNELS 3 Zrotation Yrotation Xrotation
								JOINT RightFingerBase
								{
									OFFSET 0.000000 0.000000 0.000000
									CHANNELS 3 Zrotation Yrotation Xrotation
									JOINT RightHandIndex1
									{
										OFFSET -0.622530 -0.000000 -0.000000
										CHANNELS 3 Zrotation Yrotation Xrotation
										End Site
										{
											OFFSET 0.000000 0.000000 0.000000
										}
									}
								}
								JOINT RThumb
								{
									OFFSET 0.000000 0.000000 0.000000
									CHANNELS 3 Zrotation Yrotation Xrotation
									End Site
									{
										OFFSET 0.000000 0.000000 0.000000
									}
								}
							}
						}
					}
				}
			}
		}
	}
}
MOTION
Frames: 8
Frame Time: 0.033333
-0.029022 17.193821 -0.029022 0.008673 -21.307383 4.035374 -0.113112 14.687991 13.099964 -17.919164 -19.191504 -11.912443 26.404089 -23.348397 -28.392552 -6.605869 8.725139 84.547044 0.000000 0.000000 0.000000 1.569981 -31.368164 -13.898527 49.183235 10.657828 -1.305815 -27.296995 3.210718 36.229840 0.282490 8.961522 -17.732418 0.000000 0.000000 0.000000 -2.527464 5.670139 6.256192 -4.638554 4.722992 13.570179 6.522987 4.671889 -15.325608 12.511003 -0.780051 -11.375746 -1.856267 -0.109473 -8.195562 0.000000 0.000000 0.000000 -3.417832 13.966964 17.060286 -78.426533 -5.816115 -28.225276 -143.334049 -68.707268 179.359409 6.314775 -5.253389 -0.329918 6.392653 -5.207902 -0.000000 0.000000 0.000000 0.000000 0.000000 0.000000 0.000000 -1.329943 -14.396558 3.281566 57.611304 11.781096 17.646087 47.465382 59.860005 0.204622 1.491908 6.808145 0.102027 1.490426 6.811268 0.000000 0.000000 0.000000 0.000000 0.000000 0.000000 0.000000 
-0.025710 17.219713 0.123379 0.115786 -21.033889 3.782583 1.071562 14.385092 12.339711 -20.065030 -18.767775 -10.015507 26.117973 -23.292418 -27.693653 -6.414341 8.320333 83.030085 0.000000 0.000000 0.000000 0.725455 -30.590350 -14.136425 48.170772 9.653264 -0.827475 -25.802404 2.191899 36.112277 0.324734 9.017979 -19.163322 0.000000 0.000000 0.000000 -2.722336 5.536388 7.023388 -4.588926 4.605138 12.423815 6.446022 4.541335 -14.503675 12.246046 -0.788289 -10.930897 -1.786497 -0.092575 -7.837677 0.000000 0.000000 0.000000 -3.012486 13.615321 17.225550 -78.628149 -5.972447 -28.148675 -143.395472 -68.930704 179.396688 6.304089 -5.363181 -0.310635 6.378141 -5.320211 -0.000000 0.000000 0.000000 0.000000 0.000000 0.000000 0.000000 -1.591710 -14.279715 3.208608 58.198131 11.902609 17.687744 47.710196 60.350769 0.198936 1.454701 6.667303 0.099201 1.453229 6.670313 0.000000 0.000000 0.000000 0.000000 0.000000 0.000000 0.000000 
-0.020129 17.247425 0.275166 0.201990 -20.691626 3.522474 2.197989 14.067877 11.523122 -22.083763 -18.226450 -8.160419 25.656367 -23.187048 -26.940227 -6.100421 7.998662 81.516794 0.000000 0.000000 0.000000 -0.097401 -29.701162 -14.352267 47.065169 8.632628 -0.350867 -24.210236 1.121181 35.902653 0.382350 9.023059 -20.522930 0.000000 0.000000 0.000000 -2.895005 5.381724 7.797505 -4.508014 4.469389 11.311743 6.355803 4.395885 -13.696215 11.970839 -0.794958 -10.501050 -1.709931 -0.076069 -7.469774 0.000000 0.000000 0.000000 -2.603824 13.254942 17.388054 -78.830381 -6.130436 -28.066954 -143.458418 -69.157704 179.435031 6.285675 -5.472393 -0.290823 6.355813 -5.431950 -0.000000 0.000000 0.000000 0.000000 0.000000 0.000000 0.000000 -1.865566 -14.174102 3.127798 58.787949 12.025939 17.730071 47.962647 60.839982 0.193470 1.419204 6.521440 0.096485 1.417764 6.524338 0.000000 0.000000 0.000000 0.000000 0.000000 0.000000 0.000000 
-0.012326 17.276509 0.425939 0.108885 -19.551858 2.865885 3.423992 13.515037 10.689647 -23.964378 -17.414265 -5.977965 24.773778 -23.073168 -26.251101 -5.525809 7.802198 80.141913 0.000000 0.000000 0.000000 -1.359267 -27.567906 -15.625180 45.487031 6.009655 1.357466 -21.816161 -0.858741 34.831932 0.725580 8.405209 -22.095276 0.000000 0.000000 0.000000 -2.850355 4.808588 9.231731 -4.317409 3.950233 10.148247 5.767454 3.943308 -13.253233 12.153081 -0.771454 -9.947352 -1.409773 -0.026783 -7.102904 0.000000 0.000000 0.000000 -1.620837 13.209833 17.635145 -78.996106 -6.129584 -27.969108 -143.423880 -69.341087 179.476253 6.260442 -5.586812 -0.269573 6.326436 -5.548908 -0.000000 0.000000 0.000000 0.000000 0.000000 0.000000 0.000000 -3.763010 -15.049785 1.970481 60.704114 14.494761 11.194514 54.130582 47.840348 0.104645 1.512571 6.410449 0.052064 1.508183 6.412896 0.000000 0.000000 0.000000 0.000000 0.000000 0.000000 0.000000 
-0.002866 17.306556 0.575332 -0.022217 -18.203154 2.175466 4.558107 12.845516 9.767173 -25.645671 -16.490965 -3.817279 23.743269 -22.910449 -25.508393 -4.887594 7.688633 78.791775 0.000000 0.000000 0.000000 -2.599566 -25.049944 -16.952369 43.634236 3.190018 3.222943 -19.080428 -2.970124 33.389277 1.074205 7.686909 -23.549197 0.000000 0.000000 0.000000 -2.756914 4.167927 10.736699 -4.099469 3.370138 9.004113 5.232744 3.458663 -13.279582 12.289721 -0.764143 -9.040793 -1.158656 0.009354 -6.613925 0.000000 0.000000 0.000000 -0.586633 13.090861 18.131758 -79.183308 -5.909317 -27.873644 -143.410908 -69.528474 179.518215 6.229089 -5.700891 -0.247960 6.290889 -5.665519 -0.000000 0.000000 0.000000 0.000000 0.000000 0.000000 0.000000 -5.624775 -16.300450 -0.167413 62.103645 17.874155 5.672604 57.320470 31.137605 0.010922 1.394863 5.861133 0.005260 1.388904 5.863143 0.000000 0.000000 0.000000 0.000000 0.000000 0.000000 0.000000 
0.008688 17.337061 0.723521 -0.174903 -16.898716 1.629750 5.548238 12.160514 8.787093 -27.077405 -15.572181 -1.889335 22.660300 -22.683384 -24.682318 -4.264542 7.628582 77.409506 0.000000 0.000000 0.000000 -3.636785 -22.607824 -17.946153 41.647617 0.689197 4.825628 -16.164612 -4.902293 31.759203 1.336286 7.102460 -24.873779 0.000000 0.000000 0.000000 -2.740771 3.630586 12.069259 -3.621360 2.903551 7.720417 4.908292 3.063878 -12.915774 12.115819 -0.796375 -8.302578 -1.145437 0.005566 -6.037632 0.000000 0.000000 0.000000 -0.005958 12.704242 18.532520 -79.376521 -5.805728 -27.806688 -143.441667 -69.754251 179.559670 6.194626 -5.810600 -0.226606 6.252225 -5.777755 -0.000000 0.000000 0.000000 0.000000 0.000000 0.000000 0.000000 -6.476068 -16.835876 -1.371506 62.830103 19.522099 4.259768 58.062643 24.031328 -0.019247 1.252712 5.215652 -0.009767 1.247362 5.217372 0.000000 0.000000 0.000000 0.000000 0.000000 0.000000 0.000000 
0.021950 17.367723 0.870224 -0.319369 -15.483153 1.083442 6.418374 11.400867 7.737909 -28.336017 -14.588250 -0.032719 21.479877 -22.391475 -23.811345 -3.611728 7.642764 76.061253 0.000000 0.000000 0.000000 -4.571742 -19.947550 -18.871930 39.434211 -1.833949 6.496950 -13.006936 -6.781087 29.817732 1.591843 6.470287 -26.028537 0.000000 0.000000 0.000000 -2.692056 3.075829 13.377455 -3.147330 2.434286 6.467280 4.594342 2.657477 -12.679405 11.895721 -0.829872 -7.454367 -1.143363 -0.001650 -5.429554 0.000000 0.000000 0.000000 0.572403 12.211985 19.012565 -79.574345 -5.659812 -27.748116 -143.482413 -69.992658 179.601812 6.152429 -5.918156 -0.204918 6.205769 -5.887834 0.000000 0.000000 0.000000 0.000000 0.000000 0.000000 0.000000 -7.267363 -17.424403 -2.857253 63.612216 21.345861 3.316206 58.514558 16.275301 -0.039163 1.120306 4.466249 -0.019672 1.116060 4.467673 0.000000 0.000000 0.000000 0.000000 0.000000 0.000000 0.000000 
0.036107 17.398187 1.015423 -0.430864 -13.969910 0.581699 7.146034 10.554418 6.600794 -29.431731 -13.564455 1.728736 20.239760 -22.032065 -22.895546 -2.952285 7.720034 74.745801 0.000000 0.000000 0.000000 -5.382607 -17.144969 -19.704035 37.022043 -4.315664 8.194502 -9.650195 -8.541314 27.602024 1.836558 5.797771 -26.994533 0.000000 0.000000 0.000000 -2.595178 2.584279 14.719167 -2.601950 2.067184 4.938813 3.952733 2.309329 -12.015272 10.706575 -0.384231 -5.590697 0.647703 0.319882 -7.234493 0.000000 0.000000 0.000000 1.226697 11.331219 19.469773 -79.698927 -5.772547 -27.700275 -143.594066 -70.266392 179.644474 6.089710 -6.015457 -0.182984 6.138769 -5.987678 0.000000 0.000000 0.000000 0.000000 0.000000 0.000000 0.000000 -7.470882 -18.322565 -4.335331 64.385238 22.854649 2.838849 60.228854 13.847763 0.528221 -2.228544 -10.104888 0.265237 -2.270722 -10.105895 -0.000000 0.000000 0.000000 0.000000 0.000000 0.000000 0.000000 
